<?xml version="1.0" encoding="UTF-8" standalone="no"?>
<!-- Created with Inkscape (http://www.inkscape.org/) -->

<svg
   xmlns:dc="http://purl.org/dc/elements/1.1/"
   xmlns:cc="http://creativecommons.org/ns#"
   xmlns:rdf="http://www.w3.org/1999/02/22-rdf-syntax-ns#"
   xmlns:svg="http://www.w3.org/2000/svg"
   xmlns="http://www.w3.org/2000/svg"
   xmlns:sodipodi="http://sodipodi.sourceforge.net/DTD/sodipodi-0.dtd"
   xmlns:inkscape="http://www.inkscape.org/namespaces/inkscape"
   width="297mm"
   height="210mm"
   viewBox="0 0 297 210"
   version="1.1"
   id="svg8"
   inkscape:version="0.92.5 (2060ec1f9f, 2020-04-08)"
   sodipodi:docname="LCD-VGA.svg">
  <defs
     id="defs2" />
  <sodipodi:namedview
     id="base"
     pagecolor="#ffffff"
     bordercolor="#666666"
     borderopacity="1.0"
     inkscape:pageopacity="0.0"
     inkscape:pageshadow="2"
     inkscape:zoom="1.4"
     inkscape:cx="560.26976"
     inkscape:cy="439.45846"
     inkscape:document-units="mm"
     inkscape:current-layer="layer1"
     showgrid="true"
     inkscape:snap-global="false"
     inkscape:pagecheckerboard="false"
     inkscape:window-width="1920"
     inkscape:window-height="1009"
     inkscape:window-x="1920"
     inkscape:window-y="0"
     inkscape:window-maximized="1">
    <inkscape:grid
       type="xygrid"
       id="grid4873"
       enabled="false" />
  </sodipodi:namedview>
  <metadata
     id="metadata5">
    <rdf:RDF>
      <cc:Work
         rdf:about="">
        <dc:format>image/svg+xml</dc:format>
        <dc:type
           rdf:resource="http://purl.org/dc/dcmitype/StillImage" />
        <dc:title></dc:title>
      </cc:Work>
    </rdf:RDF>
  </metadata>
  <g
     inkscape:label="Layer 1"
     inkscape:groupmode="layer"
     id="layer1"
     transform="translate(0,-87)">
    <g
       id="g132"
       transform="matrix(0.26458333,0,0,0.26458333,209.90517,161.62823)">
      <path
         id="path4424"
         style="fill:#ffffff;stroke:#000000;stroke-width:2.59739995"
         d="m 214.679,120.819 c 0,8.604 -6.98,15.579 -15.584,15.579 H -71.494 c -8.614,0 -15.584,-6.976 -15.584,-15.579 V 28.183 c 0,-8.609 6.97,-15.584 15.584,-15.584 h 270.589 c 8.604,0 15.584,6.975 15.584,15.584 z"
         inkscape:connector-curvature="0" />
      <path
         id="path4426"
         style="fill:none;stroke:#000000;stroke-width:2.59739995"
         d="m -1.134,31.124 c -14.567,0 -24.415,11.735 -21.882,26.085 l 6.114,34.566 c 2.542,14.35 16.537,26.094 31.104,26.094 H 113.4 c 14.564,0 28.559,-11.744 31.103,-26.094 l 6.116,-34.566 c 2.531,-14.35 -7.308,-26.085 -21.886,-26.085 z"
         inkscape:connector-curvature="0" />
      <g
         id="g4428">
	<path
   id="path4430"
   style="fill:none;stroke:#000000;stroke-width:2.59739995"
   d="m -57.976,61.373 c 7.251,0 13.128,5.877 13.128,13.128 0,7.243 -5.877,13.125 -13.128,13.125 -7.25,0 -13.127,-5.882 -13.127,-13.125 -0.001,-7.251 5.876,-13.128 13.127,-13.128 z"
   inkscape:connector-curvature="0" />

	<path
   id="path4432"
   style="fill:none;stroke:#000000;stroke-width:2.59739995"
   d="m 185.58,61.373 c 7.249,0 13.126,5.877 13.126,13.128 0,7.243 -5.877,13.125 -13.126,13.125 -7.247,0 -13.124,-5.882 -13.124,-13.125 0,-7.251 5.877,-13.128 13.124,-13.128 z"
   inkscape:connector-curvature="0" />

</g>
      <g
         id="g4434">
	<path
   id="path4436"
   style="fill:none;stroke:#000000;stroke-width:2.59739995"
   d="m 103.695,49.63 c -3.213,0 -5.821,2.606 -5.821,5.817 0,3.212 2.608,5.819 5.821,5.819 3.212,0 5.812,-2.607 5.812,-5.819 0,-3.211 -2.6,-5.817 -5.812,-5.817 z"
   inkscape:connector-curvature="0" />

	<path
   id="path4438"
   style="fill:none;stroke:#000000;stroke-width:2.59739995"
   d="m 80.893,49.63 c -3.214,0 -5.816,2.606 -5.816,5.817 0,3.212 2.603,5.819 5.816,5.819 3.219,0 5.823,-2.607 5.823,-5.819 0,-3.211 -2.605,-5.817 -5.823,-5.817 z"
   inkscape:connector-curvature="0" />

	<path
   id="path4440"
   style="fill:none;stroke:#000000;stroke-width:2.59739995"
   d="m 58.106,49.633 c -3.213,0 -5.823,2.604 -5.823,5.814 0,3.212 2.61,5.816 5.823,5.816 3.205,0 5.812,-2.604 5.812,-5.816 0,-3.211 -2.607,-5.814 -5.812,-5.814 z"
   inkscape:connector-curvature="0" />

	<path
   id="path4442"
   style="fill:none;stroke:#000000;stroke-width:2.59739995"
   d="m 35.304,49.63 c -3.214,0 -5.811,2.606 -5.811,5.817 0,3.212 2.597,5.819 5.811,5.819 3.214,0 5.821,-2.607 5.821,-5.819 0,-3.211 -2.607,-5.817 -5.821,-5.817 z"
   inkscape:connector-curvature="0" />

	<path
   id="path4444"
   style="fill:none;stroke:#000000;stroke-width:2.59739995"
   d="m 12.505,49.63 c -3.216,0 -5.816,2.606 -5.816,5.817 0,3.212 2.6,5.819 5.816,5.819 3.219,0 5.819,-2.607 5.819,-5.819 0,-3.211 -2.6,-5.817 -5.819,-5.817 z"
   inkscape:connector-curvature="0" />

	<path
   id="path4446"
   style="fill:none;stroke:#000000;stroke-width:2.59739995"
   d="m 92.289,68.681 c -3.209,0 -5.812,2.606 -5.812,5.82 0,3.207 2.603,5.812 5.812,5.812 3.214,0 5.826,-2.605 5.826,-5.812 0,-3.214 -2.612,-5.82 -5.826,-5.82 z"
   inkscape:connector-curvature="0" />

	<path
   id="path4448"
   style="fill:none;stroke:#000000;stroke-width:2.59739995"
   d="m 69.501,68.682 c -3.214,0 -5.819,2.605 -5.819,5.819 0,3.205 2.605,5.81 5.819,5.81 3.206,0 5.809,-2.604 5.809,-5.81 0,-3.214 -2.603,-5.819 -5.809,-5.819 z"
   inkscape:connector-curvature="0" />

	<path
   id="path4450"
   style="fill:none;stroke:#000000;stroke-width:2.59739995"
   d="m 115.093,68.681 c 3.213,0 5.818,2.604 5.818,5.817 0,3.208 -2.605,5.805 -5.818,5.805 -3.209,0 -5.812,-2.597 -5.812,-5.805 0,-3.214 2.603,-5.817 5.812,-5.817 z"
   inkscape:connector-curvature="0" />

	<path
   id="path4452"
   style="fill:none;stroke:#000000;stroke-width:2.59739995"
   d="m 46.703,68.681 c -3.206,0 -5.816,2.606 -5.816,5.82 0,3.207 2.61,5.812 5.816,5.812 3.211,0 5.819,-2.605 5.819,-5.812 -10e-4,-3.214 -2.608,-5.82 -5.819,-5.82 z"
   inkscape:connector-curvature="0" />

	<path
   id="path4454"
   style="fill:none;stroke:#000000;stroke-width:2.59739995"
   d="m 23.907,68.681 c -3.214,0 -5.822,2.606 -5.822,5.82 0,3.207 2.608,5.812 5.822,5.812 3.213,0 5.824,-2.605 5.824,-5.812 0,-3.214 -2.61,-5.82 -5.824,-5.82 z"
   inkscape:connector-curvature="0" />

	<path
   id="path4456"
   style="fill:none;stroke:#000000;stroke-width:2.59739995"
   d="m 103.695,99.362 c -3.213,0 -5.821,-2.607 -5.821,-5.821 0,-3.208 2.608,-5.816 5.821,-5.816 3.212,0 5.812,2.608 5.812,5.816 0,3.214 -2.6,5.821 -5.812,5.821 z"
   inkscape:connector-curvature="0" />

	<path
   id="path4458"
   style="fill:none;stroke:#000000;stroke-width:2.59739995"
   d="m 80.893,99.362 c -3.214,0 -5.816,-2.607 -5.816,-5.821 0,-3.208 2.603,-5.816 5.816,-5.816 3.219,0 5.823,2.608 5.823,5.816 0,3.214 -2.605,5.821 -5.823,5.821 z"
   inkscape:connector-curvature="0" />

	<path
   id="path4460"
   style="fill:none;stroke:#000000;stroke-width:2.59739995"
   d="m 58.106,99.36 c -3.213,0 -5.823,-2.605 -5.823,-5.819 0,-3.208 2.61,-5.816 5.823,-5.816 3.205,0 5.812,2.608 5.812,5.816 0,3.214 -2.607,5.819 -5.812,5.819 z"
   inkscape:connector-curvature="0" />

	<path
   id="path4462"
   style="fill:none;stroke:#000000;stroke-width:2.59739995"
   d="m 35.304,99.362 c -3.214,0 -5.811,-2.607 -5.811,-5.821 0,-3.208 2.597,-5.816 5.811,-5.816 3.214,0 5.821,2.608 5.821,5.816 0,3.214 -2.607,5.821 -5.821,5.821 z"
   inkscape:connector-curvature="0" />

	<path
   id="path4464"
   style="fill:none;stroke:#000000;stroke-width:2.59739995"
   d="m 12.505,99.362 c -3.216,0 -5.816,-2.607 -5.816,-5.821 0,-3.208 2.6,-5.816 5.816,-5.816 3.219,0 5.819,2.608 5.819,5.816 0,3.214 -2.6,5.821 -5.819,5.821 z"
   inkscape:connector-curvature="0" />

</g>
      <g
         id="g4466">
	<g
   id="g4468">
		<path
   id="path4470"
   d="m 103.973,57.629 h 0.604 v -4.607 h -0.533 l -1.007,0.54 0.119,0.476 0.805,-0.433 h 0.013 v 4.024 z"
   inkscape:connector-curvature="0" />

	</g>

	<g
   id="g4472">
		<path
   id="path4474"
   d="m 82.444,57.573 v -0.516 h -2.06 v -0.016 l 0.36,-0.341 c 0.969,-0.936 1.588,-1.624 1.588,-2.471 0,-0.66 -0.418,-1.341 -1.402,-1.341 -0.535,0 -0.992,0.205 -1.304,0.467 l 0.195,0.44 c 0.215,-0.176 0.562,-0.39 0.979,-0.39 0.688,0 0.908,0.433 0.908,0.9 0,0.693 -0.54,1.288 -1.715,2.406 l -0.486,0.474 v 0.386 h 2.937 z"
   inkscape:connector-curvature="0" />

	</g>

	<g
   id="g4476">
		<path
   id="path4478"
   d="m 56.71,57.395 c 0.229,0.149 0.683,0.312 1.2,0.312 1.096,0 1.675,-0.646 1.675,-1.38 0,-0.644 -0.457,-1.07 -1.026,-1.177 v -0.017 c 0.562,-0.206 0.851,-0.607 0.851,-1.087 0,-0.561 -0.41,-1.101 -1.316,-1.101 -0.497,0 -0.965,0.179 -1.212,0.355 l 0.171,0.452 c 0.195,-0.141 0.554,-0.303 0.922,-0.303 0.572,0 0.804,0.326 0.804,0.692 0,0.546 -0.573,0.781 -1.027,0.781 h -0.344 v 0.467 h 0.344 c 0.603,0 1.185,0.276 1.192,0.92 0.005,0.391 -0.247,0.894 -1.042,0.894 -0.438,0 -0.843,-0.178 -1.02,-0.286 z"
   inkscape:connector-curvature="0" />

	</g>

	<g
   id="g4480">
		<path
   id="path4482"
   d="m 36.356,57.629 v -1.254 h 0.646 v -0.484 h -0.646 v -2.869 h -0.672 l -2.056,2.95 v 0.403 h 2.142 v 1.254 z m -2.095,-1.738 v -0.013 l 1.124,-1.567 c 0.129,-0.218 0.242,-0.415 0.386,-0.686 h 0.019 c -0.014,0.241 -0.019,0.479 -0.019,0.723 v 1.543 z"
   inkscape:connector-curvature="0" />

	</g>

	<g
   id="g4484">
		<path
   id="path4486"
   d="m 13.822,53.082 h -2.204 l -0.298,2.195 c 0.171,-0.028 0.377,-0.049 0.646,-0.049 0.914,0 1.319,0.417 1.319,1.027 0.005,0.62 -0.503,1.006 -1.086,1.006 -0.425,0 -0.801,-0.144 -0.989,-0.258 l -0.16,0.476 c 0.227,0.142 0.647,0.283 1.149,0.283 1,0 1.719,-0.673 1.719,-1.571 0,-0.596 -0.303,-0.999 -0.664,-1.199 -0.281,-0.168 -0.629,-0.25 -0.992,-0.25 -0.167,0 -0.271,0.017 -0.373,0.031 l 0.175,-1.169 h 1.758 z"
   inkscape:connector-curvature="0" />

	</g>

	<g
   id="g4488">
		<path
   id="path4490"
   d="m 116.401,72.188 c -0.114,0 -0.271,0.009 -0.454,0.034 -0.584,0.073 -1.091,0.309 -1.474,0.681 -0.459,0.464 -0.779,1.179 -0.779,2.086 0,1.193 0.645,1.959 1.621,1.959 0.964,0 1.537,-0.777 1.537,-1.625 0,-0.895 -0.573,-1.49 -1.388,-1.49 -0.51,0 -0.902,0.239 -1.121,0.539 h -0.013 c 0.106,-0.766 0.617,-1.48 1.604,-1.636 0.175,-0.029 0.337,-0.043 0.467,-0.038 z m -1.078,4.276 c -0.654,0 -1.005,-0.564 -1.012,-1.322 0,-0.112 0.027,-0.197 0.062,-0.27 0.171,-0.338 0.523,-0.565 0.898,-0.565 0.573,0 0.946,0.397 0.946,1.054 0,0.658 -0.357,1.104 -0.888,1.104 h -0.006 z"
   inkscape:connector-curvature="0" />

	</g>

	<g
   id="g4492">
		<path
   id="path4494"
   d="m 90.987,72.422 v 0.518 h 2.253 v 0.014 l -1.991,4.071 h 0.64 l 2.006,-4.192 v -0.41 h -2.908 z"
   inkscape:connector-curvature="0" />

	</g>

	<g
   id="g4496">
		<path
   id="path4498"
   d="m 69.647,72.188 c -0.806,0 -1.42,0.497 -1.42,1.229 0,0.395 0.216,0.793 0.735,1.033 v 0.02 c -0.562,0.241 -0.908,0.66 -0.908,1.242 0,0.671 0.581,1.236 1.548,1.236 0.875,0 1.56,-0.529 1.56,-1.339 0,-0.552 -0.35,-0.963 -0.923,-1.19 v -0.021 c 0.565,-0.26 0.766,-0.684 0.766,-1.072 0,-0.584 -0.459,-1.137 -1.35,-1.137 h -0.008 z m -0.035,4.306 c -0.581,0 -0.934,-0.41 -0.916,-0.869 0,-0.44 0.297,-0.801 0.832,-0.958 0.624,0.178 1.015,0.454 1.015,1.006 0,0.476 -0.359,0.821 -0.92,0.821 z m 0.031,-3.861 c 0.554,0 0.771,0.386 0.771,0.753 0,0.416 -0.305,0.704 -0.703,0.836 -0.529,-0.141 -0.885,-0.39 -0.877,-0.849 0,-0.397 0.284,-0.74 0.799,-0.74 z"
   inkscape:connector-curvature="0" />

	</g>

	<g
   id="g4500">
		<path
   id="path4502"
   d="m 45.625,76.944 c 0.141,0.011 0.349,-0.005 0.576,-0.036 0.489,-0.055 0.983,-0.272 1.334,-0.614 0.454,-0.446 0.799,-1.152 0.799,-2.163 0,-1.185 -0.583,-1.943 -1.527,-1.943 -0.941,0 -1.58,0.766 -1.58,1.63 0,0.794 0.53,1.417 1.365,1.417 0.464,0 0.832,-0.185 1.085,-0.495 h 0.021 c -0.079,0.544 -0.302,0.946 -0.609,1.224 -0.259,0.253 -0.604,0.402 -0.961,0.445 -0.21,0.03 -0.37,0.034 -0.502,0.03 v 0.505 z m 1.131,-4.281 c 0.657,0 0.949,0.595 0.941,1.387 0,0.099 -0.021,0.172 -0.046,0.228 -0.172,0.278 -0.497,0.483 -0.918,0.483 -0.533,0 -0.887,-0.407 -0.887,-0.98 0,-0.65 0.379,-1.117 0.907,-1.117 h 0.003 z"
   inkscape:connector-curvature="0" />

	</g>

	<g
   id="g4504">
		<path
   id="path4506"
   d="m 21.738,76.87 h 0.604 v -4.605 h -0.533 l -1.005,0.539 0.12,0.476 0.802,-0.433 h 0.013 v 4.023 z"
   inkscape:connector-curvature="0" />

		<path
   id="path4508"
   d="m 25.492,76.947 c 1.007,0 1.596,-0.863 1.596,-2.432 0,-1.463 -0.561,-2.328 -1.522,-2.328 -0.938,0 -1.611,0.845 -1.611,2.392 0.018,1.526 0.629,2.368 1.532,2.368 z m 0.013,-0.483 c -0.576,0 -0.938,-0.719 -0.924,-1.917 0,-1.153 0.369,-1.875 0.935,-1.875 0.649,0 0.936,0.744 0.936,1.875 0,1.178 -0.31,1.917 -0.936,1.917 z"
   inkscape:connector-curvature="0" />

	</g>

	<g
   id="g4510">
		<path
   id="path4512"
   d="m 102.156,95.626 h 0.604 v -4.601 h -0.53 l -1.007,0.535 0.119,0.477 0.802,-0.434 h 0.013 v 4.023 z"
   inkscape:connector-curvature="0" />

		<path
   id="path4514"
   d="m 105.793,95.626 h 0.602 v -4.601 h -0.53 l -1.01,0.535 0.12,0.477 0.804,-0.434 h 0.015 v 4.023 z"
   inkscape:connector-curvature="0" />

	</g>

	<g
   id="g4516">
		<path
   id="path4518"
   d="m 78.833,95.573 h 0.604 v -4.609 h -0.53 l -1.007,0.541 0.119,0.474 0.802,-0.434 h 0.013 v 4.028 z"
   inkscape:connector-curvature="0" />

		<path
   id="path4520"
   d="m 84.053,95.573 v -0.521 h -2.06 v -0.02 l 0.36,-0.335 c 0.974,-0.934 1.59,-1.624 1.59,-2.471 0,-0.66 -0.421,-1.342 -1.405,-1.342 -0.529,0 -0.991,0.205 -1.304,0.469 l 0.198,0.441 c 0.213,-0.183 0.561,-0.391 0.977,-0.391 0.69,0 0.908,0.434 0.908,0.898 0,0.694 -0.54,1.291 -1.712,2.412 l -0.487,0.469 v 0.389 h 2.935 z"
   inkscape:connector-curvature="0" />

	</g>

	<g
   id="g4522">
		<path
   id="path4524"
   d="m 56.045,95.626 h 0.606 v -4.601 h -0.533 l -1.007,0.535 0.122,0.474 0.802,-0.431 h 0.01 z"
   inkscape:connector-curvature="0" />

		<path
   id="path4526"
   d="m 58.306,95.391 c 0.227,0.152 0.681,0.312 1.198,0.312 1.096,0 1.679,-0.646 1.679,-1.375 0,-0.648 -0.461,-1.07 -1.03,-1.179 v -0.013 c 0.563,-0.206 0.85,-0.611 0.85,-1.091 0,-0.563 -0.414,-1.101 -1.317,-1.101 -0.495,0 -0.961,0.177 -1.209,0.353 l 0.168,0.456 c 0.195,-0.142 0.553,-0.305 0.921,-0.305 0.573,0 0.807,0.325 0.807,0.692 0,0.546 -0.573,0.779 -1.027,0.779 H 59 v 0.469 h 0.346 c 0.603,0 1.183,0.277 1.191,0.921 0.007,0.389 -0.249,0.894 -1.04,0.894 -0.441,0 -0.843,-0.181 -1.02,-0.282 z"
   inkscape:connector-curvature="0" />

	</g>

	<g
   id="g4528">
		<path
   id="path4530"
   d="m 33.069,95.626 h 0.601 v -4.601 h -0.533 l -1.008,0.535 0.123,0.477 0.802,-0.434 h 0.015 z"
   inkscape:connector-curvature="0" />

		<path
   id="path4532"
   d="m 37.86,95.626 v -1.253 h 0.647 V 93.894 H 37.86 V 91.026 H 37.193 L 35.14,93.97 v 0.403 h 2.134 v 1.253 z m -2.092,-1.732 v -0.02 l 1.126,-1.561 c 0.127,-0.218 0.238,-0.421 0.38,-0.689 h 0.023 c -0.017,0.238 -0.023,0.484 -0.023,0.723 v 1.547 z"
   inkscape:connector-curvature="0" />

	</g>

	<g
   id="g4534">
		<path
   id="path4536"
   d="m 10.389,95.682 h 0.606 v -4.601 h -0.539 l -0.999,0.54 0.12,0.475 0.799,-0.439 h 0.013 z"
   inkscape:connector-curvature="0" />

		<path
   id="path4538"
   d="m 15.417,91.081 h -2.205 l -0.297,2.196 c 0.167,-0.033 0.375,-0.053 0.643,-0.053 0.917,0 1.318,0.421 1.318,1.027 0.01,0.626 -0.5,1.007 -1.079,1.007 -0.425,0 -0.803,-0.143 -0.996,-0.257 l -0.155,0.475 c 0.226,0.143 0.644,0.289 1.15,0.289 0.993,0 1.711,-0.677 1.711,-1.577 0,-0.597 -0.293,-0.997 -0.655,-1.195 -0.288,-0.17 -0.637,-0.248 -0.994,-0.248 -0.172,0 -0.268,0.013 -0.378,0.027 L 13.658,91.6 h 1.758 v -0.519 z"
   inkscape:connector-curvature="0" />

	</g>

</g>
    </g>
    <g
       id="g3962"
       transform="matrix(0.12384701,0,0,0.13408658,-23.692192,158.12204)">
      <rect
         ry="25.455872"
         y="-83.051956"
         x="282.11758"
         height="469.90967"
         width="1035.2422"
         id="rect3817"
         style="opacity:1;fill:#499a56;fill-opacity:1;stroke:#000000;stroke-width:2.21329308;stroke-linecap:round;stroke-miterlimit:4;stroke-dasharray:none;stroke-opacity:0" />
      <ellipse
         ry="70.979691"
         rx="77.343658"
         cy="171.52512"
         cx="985.35437"
         id="path3819-5"
         style="opacity:1;fill:#000000;fill-opacity:1;stroke:#000000;stroke-width:2.41923451;stroke-linecap:round;stroke-miterlimit:4;stroke-dasharray:none;stroke-opacity:0" />
      <circle
         r="22.273888"
         cy="-46.516167"
         cx="1281.2944"
         id="path3858-9"
         style="opacity:1;fill:#ffffff;fill-opacity:1;stroke:#e2ca88;stroke-width:6.60000706;stroke-linecap:round;stroke-miterlimit:4;stroke-dasharray:none;stroke-opacity:1" />
      <rect
         y="-75.608971"
         x="717.00702"
         height="240.77013"
         width="550.48322"
         id="rect3491"
         style="opacity:1;fill:#131311;fill-opacity:1;stroke:none;stroke-width:2.25000238;stroke-linecap:round;stroke-miterlimit:4;stroke-dasharray:none;stroke-opacity:1" />
      <rect
         y="0.79868585"
         x="1039.1262"
         height="90.756248"
         width="83.250092"
         id="rect3493"
         style="opacity:1;fill:#2a7ab2;fill-opacity:1;stroke:none;stroke-width:1.85863948;stroke-linecap:round;stroke-miterlimit:4;stroke-dasharray:none;stroke-opacity:1" />
      <rect
         y="-25.606672"
         x="879.9679"
         height="144.00015"
         width="99.750092"
         id="rect3495"
         style="opacity:1;fill:#1a1a17;fill-opacity:1;stroke:none;stroke-width:2.15488839;stroke-linecap:round;stroke-miterlimit:4;stroke-dasharray:none;stroke-opacity:1" />
      <text
         id="text3499"
         y="152.67384"
         x="726.75079"
         style="font-style:normal;font-weight:normal;font-size:30.00003242px;line-height:1.25;font-family:sans-serif;letter-spacing:0px;word-spacing:0px;fill:#ffffff;fill-opacity:1;stroke:none;stroke-width:0.75000077"
         xml:space="preserve"><tspan
           style="fill:#ffffff;stroke-width:0.75000077"
           y="152.67384"
           x="726.75079"
           id="tspan3497"
           sodipodi:role="line">IIC module</tspan></text>
      <text
         id="text3503"
         y="0.42368478"
         x="723.00079"
         style="font-style:normal;font-weight:normal;font-size:20.00002098px;line-height:1.25;font-family:sans-serif;letter-spacing:0px;word-spacing:0px;fill:#ffffff;fill-opacity:1;stroke:none;stroke-width:0.75000077"
         xml:space="preserve"><tspan
           style="font-size:20.00002098px;fill:#ffffff;stroke-width:0.75000077"
           y="0.42368478"
           x="723.00079"
           id="tspan3501"
           sodipodi:role="line">LED</tspan></text>
      <rect
         y="-8.5763245"
         x="1227.7513"
         height="139.50015"
         width="36.000038"
         id="rect3505"
         style="opacity:1;fill:none;fill-opacity:0.57203387;stroke:#ffffff;stroke-width:2.25000238;stroke-linecap:round;stroke-miterlimit:4;stroke-dasharray:none;stroke-opacity:1" />
      <rect
         y="-71.726395"
         x="722.19177"
         height="29.110693"
         width="540.98627"
         id="rect3507"
         style="opacity:1;fill:none;fill-opacity:1;stroke:#ffffff;stroke-width:2.02972031;stroke-linecap:round;stroke-miterlimit:4;stroke-dasharray:none;stroke-opacity:1" />
      <text
         id="text3511"
         y="16.1737"
         x="1179.0012"
         style="font-style:normal;font-weight:normal;font-size:20.00002098px;line-height:1.25;font-family:sans-serif;letter-spacing:0px;word-spacing:0px;fill:#ffffff;fill-opacity:1;stroke:none;stroke-width:0.75000077"
         xml:space="preserve"><tspan
           style="font-size:20.00002098px;fill:#ffffff;stroke-width:0.75000077"
           y="16.1737"
           x="1179.0012"
           id="tspan3509"
           sodipodi:role="line">GND</tspan></text>
      <text
         id="text3511-0"
         y="50.829014"
         x="1180.0959"
         style="font-style:normal;font-weight:normal;font-size:20.00002098px;line-height:1.25;font-family:sans-serif;letter-spacing:0px;word-spacing:0px;fill:#ffffff;fill-opacity:1;stroke:none;stroke-width:0.75000077"
         xml:space="preserve"><tspan
           style="font-size:20.00002098px;fill:#ffffff;stroke-width:0.75000077"
           y="50.829014"
           x="1180.0959"
           id="tspan3509-5"
           sodipodi:role="line">VCC</tspan></text>
      <text
         id="text3511-1"
         y="86.079048"
         x="1180.4709"
         style="font-style:normal;font-weight:normal;font-size:20.00002098px;line-height:1.25;font-family:sans-serif;letter-spacing:0px;word-spacing:0px;fill:#ffffff;fill-opacity:1;stroke:none;stroke-width:0.75000077"
         xml:space="preserve"><tspan
           style="font-size:20.00002098px;fill:#ffffff;stroke-width:0.75000077"
           y="86.079048"
           x="1180.4709"
           id="tspan3509-9"
           sodipodi:role="line">SDA</tspan></text>
      <text
         id="text3511-2"
         y="122.45409"
         x="1180.4709"
         style="font-style:normal;font-weight:normal;font-size:20.00002098px;line-height:1.25;font-family:sans-serif;letter-spacing:0px;word-spacing:0px;fill:#ffffff;fill-opacity:1;stroke:none;stroke-width:0.75000077"
         xml:space="preserve"><tspan
           style="font-size:20.00002098px;fill:#ffffff;stroke-width:0.75000077"
           y="122.45409"
           x="1180.4709"
           id="tspan3509-3"
           sodipodi:role="line">SCL</tspan></text>
      <ellipse
         ry="23.625025"
         rx="21.750023"
         cy="44.673729"
         cx="1081.8762"
         id="path3547"
         style="opacity:1;fill:#c5c7ba;fill-opacity:1;stroke:#000000;stroke-width:2.25000238;stroke-linecap:round;stroke-miterlimit:4;stroke-dasharray:none;stroke-opacity:0" />
      <rect
         transform="rotate(35.206225)"
         y="-605.82269"
         x="905.46521"
         height="38.10582"
         width="9.064867"
         id="rect3549"
         style="opacity:1;fill:#827661;fill-opacity:1;stroke:#000000;stroke-width:1.4301312;stroke-linecap:round;stroke-miterlimit:4;stroke-dasharray:none;stroke-opacity:0" />
      <rect
         transform="rotate(-54.793775)"
         y="891.29669"
         x="582.01428"
         height="37.25806"
         width="9.0797091"
         id="rect3549-6"
         style="opacity:1;fill:#827661;fill-opacity:1;stroke:#000000;stroke-width:1.41529036;stroke-linecap:round;stroke-miterlimit:4;stroke-dasharray:none;stroke-opacity:0" />
      <rect
         y="17.950239"
         x="726.27728"
         height="58.696995"
         width="28.696953"
         id="rect3505-5"
         style="opacity:1;fill:none;fill-opacity:0.57203387;stroke:#ffffff;stroke-width:2.25000238;stroke-linecap:round;stroke-miterlimit:4;stroke-dasharray:none;stroke-opacity:1" />
      <ellipse
         ry="11.618864"
         rx="10.696733"
         cy="35.095856"
         cx="739.87579"
         id="path3547-3"
         style="opacity:1;fill:#c5c7ba;fill-opacity:1;stroke:#000000;stroke-width:1.10655856;stroke-linecap:round;stroke-miterlimit:4;stroke-dasharray:none;stroke-opacity:0" />
      <ellipse
         ry="11.618864"
         rx="10.696733"
         cy="61.923748"
         cx="740.25079"
         id="path3547-3-7"
         style="opacity:1;fill:#c5c7ba;fill-opacity:1;stroke:#000000;stroke-width:1.10655856;stroke-linecap:round;stroke-miterlimit:4;stroke-dasharray:none;stroke-opacity:0" />
      <ellipse
         ry="11.618864"
         rx="10.696733"
         cy="8.9472618"
         cx="1245.5638"
         id="path3547-3-0"
         style="opacity:1;fill:#c5c7ba;fill-opacity:1;stroke:#000000;stroke-width:1.10655856;stroke-linecap:round;stroke-miterlimit:4;stroke-dasharray:none;stroke-opacity:0" />
      <ellipse
         ry="11.618864"
         rx="10.696733"
         cy="43.087658"
         cx="1245.5638"
         id="path3547-3-7-3"
         style="opacity:1;fill:#c5c7ba;fill-opacity:1;stroke:#000000;stroke-width:1.10655856;stroke-linecap:round;stroke-miterlimit:4;stroke-dasharray:none;stroke-opacity:0" />
      <ellipse
         ry="11.618864"
         rx="10.696733"
         cy="76.923775"
         cx="1245.7513"
         id="path3547-3-7-3-5"
         style="opacity:1;fill:#c5c7ba;fill-opacity:1;stroke:#000000;stroke-width:1.10655856;stroke-linecap:round;stroke-miterlimit:4;stroke-dasharray:none;stroke-opacity:0" />
      <ellipse
         ry="11.618864"
         rx="10.696733"
         cy="111.79882"
         cx="1245.5638"
         id="path3547-3-7-3-9"
         style="opacity:1;fill:#c5c7ba;fill-opacity:1;stroke:#000000;stroke-width:1.10655856;stroke-linecap:round;stroke-miterlimit:4;stroke-dasharray:none;stroke-opacity:0" />
      <rect
         y="20.671436"
         x="789.7486"
         height="15.004557"
         width="14.188265"
         id="rect3755"
         style="opacity:1;fill:#c5c7ba;fill-opacity:1;stroke:#000000;stroke-width:2.2454617;stroke-linecap:round;stroke-miterlimit:4;stroke-dasharray:none;stroke-opacity:0" />
      <rect
         y="52.716087"
         x="789.85388"
         height="15.01367"
         width="14.064795"
         id="rect3755-3"
         style="opacity:1;fill:#c5c7ba;fill-opacity:1;stroke:#000000;stroke-width:2.23634887;stroke-linecap:round;stroke-miterlimit:4;stroke-dasharray:none;stroke-opacity:0" />
      <rect
         y="35.615788"
         x="789.8255"
         height="17.237211"
         width="14.100722"
         id="rect3755-3-4"
         style="opacity:1;fill:#ffffff;fill-opacity:1;stroke:#000000;stroke-width:2.39929509;stroke-linecap:round;stroke-miterlimit:4;stroke-dasharray:none;stroke-opacity:0" />
      <rect
         y="17.871923"
         x="786.7738"
         height="54.338654"
         width="20.626301"
         id="rect3505-5-1"
         style="opacity:1;fill:none;fill-opacity:0.57203387;stroke:#ffffff;stroke-width:1.8353641;stroke-linecap:round;stroke-miterlimit:4;stroke-dasharray:none;stroke-opacity:1" />
      <rect
         y="-5.7805414"
         x="1034.1205"
         height="105.88623"
         width="94.447762"
         id="rect3505-5-6"
         style="opacity:1;fill:none;fill-opacity:0.57203387;stroke:#ffffff;stroke-width:2.27863169;stroke-linecap:round;stroke-miterlimit:4;stroke-dasharray:none;stroke-opacity:1" />
      <ellipse
         ry="71.064308"
         rx="66.821663"
         cy="150.31189"
         cx="634.27545"
         id="path3819"
         style="opacity:1;fill:#000000;fill-opacity:1;stroke:#000000;stroke-width:2.25000238;stroke-linecap:round;stroke-miterlimit:4;stroke-dasharray:none;stroke-opacity:0" />
      <text
         id="text3838"
         y="262.742"
         x="903.68347"
         style="font-style:normal;font-weight:normal;font-size:30.00003242px;line-height:1.25;font-family:sans-serif;letter-spacing:0px;word-spacing:0px;fill:#ffffff;fill-opacity:1;stroke:none;stroke-width:0.75000077"
         xml:space="preserve"><tspan
           style="fill:#ffffff;stroke-width:0.75000077"
           y="262.742"
           x="903.68347"
           id="tspan3836"
           sodipodi:role="line">U1</tspan></text>
      <text
         id="text3838-0"
         y="248.00879"
         x="563.97516"
         style="font-style:normal;font-weight:normal;font-size:30.00003242px;line-height:1.25;font-family:sans-serif;letter-spacing:0px;word-spacing:0px;fill:#ffffff;fill-opacity:1;stroke:none;stroke-width:0.75000077"
         xml:space="preserve"><tspan
           style="fill:#ffffff;stroke-width:0.75000077"
           y="248.00879"
           x="563.97516"
           id="tspan3836-4"
           sodipodi:role="line">U2</tspan></text>
      <circle
         r="22.273888"
         cy="-47.501446"
         cx="317.66806"
         id="path3858"
         style="opacity:1;fill:#ffffff;fill-opacity:1;stroke:#e2ca88;stroke-width:6.60000706;stroke-linecap:round;stroke-miterlimit:4;stroke-dasharray:none;stroke-opacity:1" />
      <circle
         r="22.273888"
         cy="351.32285"
         cx="315.01645"
         id="path3858-2"
         style="opacity:1;fill:#ffffff;fill-opacity:1;stroke:#e2ca88;stroke-width:6.60000706;stroke-linecap:round;stroke-miterlimit:4;stroke-dasharray:none;stroke-opacity:1" />
      <circle
         r="22.273888"
         cy="352.27689"
         cx="1281.2035"
         id="path3858-1"
         style="opacity:1;fill:#ffffff;fill-opacity:1;stroke:#e2ca88;stroke-width:6.60000706;stroke-linecap:round;stroke-miterlimit:4;stroke-dasharray:none;stroke-opacity:1" />
    </g>
    <path
       style="fill:none;stroke:#000000;stroke-width:1.56500006;stroke-linecap:butt;stroke-linejoin:miter;stroke-miterlimit:4;stroke-dasharray:none;stroke-opacity:1"
       d="m 130.59077,159.41667 c 21.16712,0 55.18453,0 82.77679,0 v 17.3869 -0.75595"
       id="path4875"
       inkscape:connector-curvature="0"
       sodipodi:nodetypes="cccc" />
    <path
       style="fill:none;stroke:#ff0000;stroke-width:1.265;stroke-linecap:butt;stroke-linejoin:miter;stroke-opacity:1;fill-opacity:1;stroke-miterlimit:4;stroke-dasharray:none"
       d="m 130.59077,164.14137 91.84822,-0.37797 -0.18899,18.14285 v -0.37797"
       id="path4877"
       inkscape:connector-curvature="0" />
    <path
       style="fill:none;stroke:#00daff;stroke-width:1.265;stroke-linecap:butt;stroke-linejoin:miter;stroke-opacity:1;stroke-miterlimit:4;stroke-dasharray:none"
       d="m 130.59077,168.4881 101.10863,0.18899 -0.18899,17.76488 v 0 l -0.18898,-0.37798"
       id="path4879"
       inkscape:connector-curvature="0" />
    <path
       style="fill:none;stroke:#efef00;stroke-width:1.265;stroke-linecap:butt;stroke-linejoin:miter;stroke-opacity:1;stroke-miterlimit:4;stroke-dasharray:none"
       d="m 130.59077,173.2128 h 76.91816 v 13.60714 h 5.48065 v 0 0"
       id="path4881"
       inkscape:connector-curvature="0" />
  </g>
</svg>
